<?xml version="1.0" encoding="UTF-8"?>
<!DOCTYPE svg PUBLIC "-//W3C//DTD SVG 1.1//EN" "http://www.w3.org/Graphics/SVG/1.1/DTD/svg11.dtd">
<svg version="1.1" id="OmniFaces_logo" xmlns="http://www.w3.org/2000/svg" xml:space="preserve"
	x="0px" y="0px" viewBox="0 0 2088.5 356.1" enable-background="new 0 0 2088.5 356.1"
>
	<g>
		<g>
			<g transform="translate(-88.000000, -255.000000)">
				<g transform="translate(88.000000, 254.984000)">
					<path fill="#1E1F1F" d="M49.4,194.9c24,0,43.4-19.6,43.4-43.7s-19.4-43.7-43.4-43.7 S6,127,6,151.1S25.4,194.9,49.4,194.9z" />
					<ellipse fill="#1E1F1F" cx="101" cy="305.4" rx="43.4" ry="43.7" />
					<ellipse fill="#1E1F1F" cx="187.8" cy="45.7" rx="43.4" ry="43.7" />
					<ellipse fill="#1E1F1F" cx="323.7" cy="151.1" rx="43.4" ry="43.7" />
					<ellipse fill="#1E1F1F" cx="268.8" cy="305.4" rx="43.4" ry="43.7" />
					<path fill="#1E1F1F" stroke="#1E1F1F" d="M124,316.1v-21.4h121.9v21.4H124 L124,316.1z" />
					<path fill="#1E1F1F" stroke="#1E1F1F" d="M53.2,133.9l12.5,17.3L164.3,79 l-12.5-17.3L53.2,133.9L53.2,133.9z" />
					<path fill="#1E1F1F" stroke="#1E1F1F" d="M318,133.9l-12.5,17.3L206.9,79 l12.5-17.3L318,133.9L318,133.9z" />
					<path fill="#1E1F1F" stroke="#1E1F1F" d="M43.6,169.2l20.3-6.2l35.6,117.4 l-20.3,6.2L43.6,169.2L43.6,169.2z" />
					<path fill="#1E1F1F" stroke="#1E1F1F" d="M301.8,162.9l20.3,6.2l-35.6,117.4 l-20.3-6.2L301.8,162.9L301.8,162.9z" />
				</g>
			</g>
		</g>
		<g>
			<path d="M542.4,69c76.9,0,120.1,52,120.1,126S620,322.4,542.4,322.4c-78.6,0-120.1-52.3-120.1-127.4 C422.3,119.9,464.5,69,542.4,69z M542.4,283.8c50.2,0,68.8-44.6,68.8-88.8c0-43.2-20-87.4-68.8-87.4c-48.8,0-68.8,44.2-68.8,87.4 C473.6,239.2,492.2,283.8,542.4,283.8z" />
			<path d="M688.4,137.4h43.9v25.3h0.7c14.7-22.1,36.2-29.5,53.7-29.5c25.3,0,43.2,9.5,53.4,31.9c10.9-21.8,34.4-31.9,56.5-31.9 c44.6,0,57.2,30.5,57.2,70.9v114.1h-47V210.4c0-16.9,0-40.7-27-40.7c-31.2,0-35.1,37.2-35.1,60.7v87.8h-47V210.4 c0-16.9,0-40.7-27-40.7c-31.2,0-35.1,37.2-35.1,60.7v87.8h-47V137.4z" />
			<path d="M987.2,137.4h44.6V162h0.7c14.7-20.7,34.8-28.8,59.3-28.8c42.8,0,61.4,30.2,61.4,70.9v114.1h-47v-96.5 c0-22.1-0.4-52-30.5-52c-34.1,0-41.4,36.9-41.4,60v88.5h-47V137.4z"/>
			<path d="M1188.6,59.5h47v44.9h-47V59.5z M1188.6,137.4h47v180.8h-47V137.4z" /><path d="M1289.4,73.2h136.2v38.6h-87.1v60.4h82.8v38.6h-82.8v107.4h-49.1V73.2z" />
			<path d="M1461.8,146.9c18.3-8.4,42.8-13.7,62.8-13.7c55.1,0,77.9,22.8,77.9,76.2v23.2c0,18.3,0.4,31.9,0.7,45.3 c0.4,13.7,1.1,26.3,2.1,40.4h-41.4c-1.8-9.5-1.8-21.4-2.1-27h-0.7c-10.9,20-34.4,31.2-55.8,31.2c-31.9,0-63.2-19.3-63.2-53.7 c0-27,13-42.8,30.9-51.6c17.9-8.8,41.1-10.5,60.7-10.5h26c0-29.1-13-39-40.7-39c-20,0-40,7.7-55.8,19.7L1461.8,146.9z M1516.9,288 c14.4,0,25.6-6.3,33-16.1c7.7-10.2,9.8-23.2,9.8-37.2h-20.4c-21.1,0-52.3,3.5-52.3,31.2C1487,281.3,1500,288,1516.9,288z" />
			<path d="M1752.1,176.4c-8.4-3.9-17.6-6.7-31.9-6.7c-29.1,0-47.7,23.2-47.7,57.2c0,33.3,15.8,59,48.8,59c13.3,0,28.1-4.9,36.2-8.4 l2.1,39c-13.7,4.2-27.7,6-47,6c-59.3,0-89.2-40.4-89.2-95.5c0-52.3,30.9-93.7,87.4-93.7c19,0,32.6,2.1,45.6,6L1752.1,176.4z" />
			<path d="M1921.6,308c-17.2,9.5-36.9,14.4-62.1,14.4c-59.7,0-94.4-34.4-94.4-93.7c0-52.3,27.7-95.5,83.9-95.5c67,0,86,46,86,109.2 h-125c2.1,29.1,22.5,45.6,51.6,45.6c22.8,0,42.5-8.4,60-18.3V308z M1890,210.1c-1.4-22.8-11.9-42.5-38.3-42.5 s-39.7,18.3-41.8,42.5H1890z" />
			<path d="M2065.2,175.3c-14.4-4.9-24.9-7.7-42.1-7.7c-12.6,0-27.7,4.6-27.7,20c0,28.8,81.8,10.5,81.8,75.8c0,42.1-37.6,59-75.8,59 c-17.9,0-36.2-3.2-53.4-7.7l2.8-38.6c14.7,7.4,30.2,11.9,46.3,11.9c11.9,0,30.9-4.6,30.9-22.1c0-35.5-81.8-11.2-81.8-76.5 c0-39,34.1-56.2,70.9-56.2c22.1,0,36.5,3.5,51.3,6.7L2065.2,175.3z" />
		</g>
	</g>
</svg>